<?xml version="1.0" encoding="UTF-8"?>
<svg width="2000" height="600" viewBox="0 0 2000 600" fill="none" xmlns="http://www.w3.org/2000/svg">
  <title>BILLBOX combined logo</title>
  <rect width="2000" height="600" fill="none"/>

  <!-- Icon (scaled) -->
  <g transform="translate(0,0) scale(0.5859375)">
    <rect width="1024" height="1024" fill="none"/>
    <rect x="96" y="96" width="832" height="832" rx="200" fill="#1E4ED8"/>
    <path
      d="M348 296
         H606
         L708 398
         V728
         C708 764 679 792 644 792
         H348
         C312 792 284 764 284 728
         V360
         C284 324 312 296 348 296Z"
      fill="#FFFFFF"/>
    <path d="M606 296 V398 H708" fill="#1E4ED8"/>
    <rect x="340" y="654" width="308" height="74" rx="37" fill="#E0E7FF"/>
    <path
      d="M382 690 L412 720 L468 664"
      stroke="#1E4ED8"
      stroke-width="18"
      stroke-linecap="round"
      stroke-linejoin="round"
    />
    <rect x="500" y="688" width="120" height="12" rx="6" fill="#1E4ED8" opacity="0.75"/>
  </g>

  <!-- Wordmark -->
  <text
    x="700"
    y="385"
    fill="#0F172A"
    font-family="Inter, system-ui, -apple-system, BlinkMacSystemFont, 'SF Pro Display', 'SF Pro Text', 'Segoe UI', Roboto, Arial, sans-serif"
    font-size="220"
    font-weight="600"
    letter-spacing="14"
  >BILLBOX</text>
</svg>
